<?xml version="1.0" standalone="no"?>
<!DOCTYPE svg PUBLIC "-//W3C//DTD SVG 20010904//EN"
 "http://www.w3.org/TR/2001/REC-SVG-20010904/DTD/svg10.dtd">
<svg version="1.0" xmlns="http://www.w3.org/2000/svg"
 width="1292.000000pt" height="1292.000000pt" viewBox="0 0 1292.000000 1292.000000"
 preserveAspectRatio="xMidYMid meet">
<metadata>
Created by potrace 1.14, written by Peter Selinger 2001-2017
</metadata>
<g transform="translate(0.000000,1292.000000) scale(0.100000,-0.100000)"
fill="#000000" stroke="none">
<path d="M7393 11524 c-571 -105 -1106 -328 -1658 -692 -187 -124 -440 -312
-535 -400 -27 -25 -44 -30 -105 -36 -22 -3 -1137 -5 -2478 -5 l-2438 -1 5
-181 c2 -99 7 -183 9 -186 3 -2 995 -6 2204 -7 1209 -2 2231 -4 2271 -5 l73
-1 -21 -27 c-12 -16 -47 -55 -78 -88 -57 -60 -88 -94 -196 -218 l-58 -67
-2104 0 -2104 0 0 -185 0 -185 1873 -1 c2130 0 2057 0 2057 -7 0 -3 -13 -26
-30 -52 -16 -25 -70 -113 -119 -195 l-89 -150 -1846 4 -1846 3 0 -191 0 -191
1761 4 c1380 3 1759 2 1757 -8 -2 -7 -32 -98 -68 -204 l-64 -191 -136 -3 c-74
-2 -832 -4 -1684 -6 -852 -1 -1551 -4 -1554 -6 -2 -3 -6 -86 -8 -185 l-4 -181
1656 5 1656 4 -8 -102 c-10 -135 -11 -410 -2 -522 17 -215 18 -249 5 -231 -11
14 -42 -4 -282 -165 -148 -100 -468 -314 -710 -477 -242 -162 -534 -359 -650
-437 -700 -472 -1494 -1006 -1583 -1064 l-83 -54 2 -193 c1 -106 5 -197 9
-204 7 -12 304 183 2030 1338 885 592 1231 826 1298 875 30 21 56 36 59 33 3
-3 28 -67 55 -143 27 -76 58 -162 69 -192 20 -52 20 -55 2 -64 -17 -10 -111
-73 -838 -562 -148 -100 -416 -280 -595 -400 -602 -405 -934 -628 -1085 -730
-82 -56 -337 -227 -565 -380 -228 -153 -419 -282 -424 -286 -9 -8 -16 -353 -8
-396 l4 -22 42 26 c50 32 742 493 1031 688 116 78 471 316 790 530 319 214
675 452 790 530 116 78 380 255 587 393 207 139 393 267 412 286 l35 33 43
-61 c23 -34 78 -110 121 -169 44 -60 76 -112 71 -115 -5 -4 -140 -94 -299
-201 -160 -107 -432 -289 -605 -406 -173 -116 -502 -337 -730 -490 -228 -153
-523 -351 -655 -440 -132 -89 -505 -340 -830 -557 -790 -530 -799 -536 -807
-556 -9 -23 2 -375 13 -386 8 -9 304 185 1194 781 393 264 1283 860 2485 1665
228 153 430 291 448 307 l32 28 73 -66 c39 -36 90 -82 112 -103 22 -20 64 -56
94 -79 l54 -43 -29 -7 c-16 -3 -85 -44 -154 -91 -69 -46 -458 -308 -865 -580
-407 -273 -864 -579 -1015 -681 -151 -102 -513 -345 -805 -541 -643 -431
-1561 -1048 -1618 -1087 -4 -3 -10 -103 -13 -222 l-5 -217 4219 0 4219 0 7 83
c4 45 9 114 12 152 2 39 6 80 9 93 5 22 5 22 -122 23 -1146 7 -1926 9 -4583
10 -1724 1 -3152 5 -3173 8 l-38 6 103 70 c335 228 440 299 693 470 280 189
417 280 1325 885 692 461 1886 1260 2012 1347 77 53 111 71 125 66 10 -4 51
-27 92 -50 337 -200 736 -343 1106 -398 185 -27 271 -33 490 -33 236 0 374 16
585 69 350 88 748 283 1050 515 57 43 124 94 149 113 69 50 382 370 496 506
385 458 476 554 558 593 121 57 282 13 407 -109 124 -121 134 -288 30 -488
-59 -114 -274 -394 -440 -575 -325 -355 -565 -567 -768 -677 l-29 -17 -8 -123
c-4 -68 -8 -148 -10 -176 -2 -29 0 -55 4 -57 11 -7 189 76 296 139 357 210
898 739 1166 1140 82 122 174 312 199 410 54 210 28 395 -76 547 -81 120 -253
262 -390 323 -119 53 -314 76 -415 50 -99 -26 -222 -98 -315 -182 -39 -36
-140 -149 -239 -268 -235 -283 -347 -408 -496 -556 -425 -422 -906 -679 -1454
-773 -333 -58 -721 -35 -1060 61 -159 45 -474 177 -583 245 l-34 21 34 12 c76
26 354 217 343 235 -10 16 10 12 92 -21 312 -124 538 -166 883 -163 361 4 672
93 1008 291 95 55 231 154 312 227 104 93 373 369 460 471 51 61 102 121 114
135 12 14 69 81 128 150 203 240 315 344 462 432 335 202 726 175 1111 -76
368 -240 564 -563 566 -934 2 -284 -77 -514 -286 -833 -148 -227 -324 -436
-581 -693 -244 -244 -429 -394 -669 -544 -159 -100 -438 -229 -556 -257 -14
-4 -26 -12 -26 -18 -1 -7 -4 -88 -8 -181 l-8 -169 48 8 c177 26 582 212 830
380 411 279 744 591 1111 1042 184 226 357 529 427 748 78 246 82 269 81 500
0 239 -12 310 -84 502 -73 194 -174 345 -350 523 -188 190 -492 374 -730 443
-191 55 -421 74 -596 48 -254 -37 -560 -202 -779 -418 -102 -100 -283 -307
-468 -533 -86 -106 -310 -338 -426 -443 -86 -77 -246 -185 -373 -251 -234
-122 -449 -177 -718 -182 -162 -3 -227 4 -435 41 -53 10 -176 48 -181 57 -7
10 3 10 45 -2 32 -9 41 -5 220 116 198 134 234 162 225 175 -3 5 7 9 23 9 119
2 322 34 426 67 222 70 424 199 627 403 121 121 147 150 368 413 159 187 202
233 202 213 0 -3 -8 -13 -17 -22 -17 -17 -17 -18 0 -11 10 4 142 89 292 189
l275 183 0 65 c0 38 -5 71 -12 78 -16 16 1 28 137 95 134 67 283 120 419 149
84 18 136 21 311 22 266 1 391 -16 590 -80 455 -147 899 -489 1160 -892 101
-157 198 -399 228 -572 3 -14 10 -43 16 -65 5 -22 14 -87 18 -145 46 -614
-177 -1189 -702 -1810 -194 -230 -598 -630 -705 -699 -14 -9 -32 -22 -40 -30
-27 -27 -234 -177 -340 -248 -186 -124 -455 -269 -610 -330 -30 -12 -84 -33
-120 -46 -69 -27 -289 -91 -353 -102 -20 -4 -40 -12 -43 -17 -3 -5 -8 -88 -10
-184 -4 -163 -3 -175 14 -170 9 3 46 10 82 16 83 15 337 88 460 133 159 58
347 147 546 258 224 124 562 364 767 542 165 143 454 440 607 622 41 50 77 92
80 95 23 21 161 206 222 295 184 268 340 584 412 830 38 130 81 334 90 430 8
76 8 391 1 470 -37 382 -183 764 -405 1055 -99 129 -116 148 -243 278 -227
229 -542 446 -812 558 -174 72 -368 130 -515 154 -218 35 -525 33 -780 -6 -56
-8 -207 -53 -310 -91 -195 -73 -426 -207 -605 -353 -98 -80 -323 -302 -425
-419 -100 -116 -101 -117 -170 -157 -62 -36 -1071 -708 -1117 -744 l-22 -17
22 -11 c18 -10 13 -11 -30 -7 -130 12 -163 18 -247 46 -150 50 -381 175 -258
139 30 -8 42 -2 195 100 89 59 174 119 189 133 26 24 32 25 95 19 201 -20 369
36 525 177 33 30 160 172 283 316 123 144 230 262 237 262 7 0 38 15 68 33 41
26 1041 691 1082 720 4 3 9 35 12 70 2 36 5 66 5 68 2 7 97 42 192 71 468 138
951 140 1398 5 534 -162 1028 -483 1417 -920 341 -383 580 -925 629 -1429 11
-105 14 -463 5 -525 -5 -36 -12 -83 -15 -105 -17 -131 -60 -307 -122 -500
-114 -355 -299 -705 -551 -1043 -184 -249 -308 -389 -588 -668 -273 -272 -528
-480 -829 -676 -494 -323 -919 -504 -1434 -612 -131 -27 -155 -35 -157 -52 -2
-10 -6 -91 -10 -178 l-7 -159 59 6 c138 14 498 101 689 168 1022 355 2015
1141 2696 2134 128 187 286 483 392 736 119 283 191 539 234 831 24 167 23
482 -3 753 -26 274 -139 656 -272 920 -296 590 -849 1127 -1497 1454 -208 105
-306 146 -499 205 -318 99 -490 126 -828 133 -429 9 -647 -28 -1013 -174 -496
-197 -853 -461 -1289 -953 -152 -171 -144 -164 -218 -207 -76 -44 -588 -384
-639 -424 l-37 -29 -60 40 c-119 80 -173 169 -171 285 1 39 3 62 6 52 3 -12
11 -17 23 -14 16 4 488 318 1400 932 157 106 465 312 685 460 220 147 402 269
404 271 8 7 8 402 0 415 -8 14 -43 -9 -1059 -691 -624 -420 -920 -620 -977
-662 -29 -21 -53 -35 -53 -31 0 32 383 425 548 562 91 76 284 213 313 223 12
4 16 40 28 285 1 6 29 28 64 49 34 20 306 199 604 398 l543 361 0 228 0 227
-577 1 c-318 1 -583 1 -588 0 -7 -1 -9 64 -7 195 4 188 4 196 -14 191 -11 -3
-37 -9 -59 -12 -87 -15 -281 -67 -412 -111 -159 -54 -238 -87 -453 -191 l-155
-75 -140 0 c-342 -1 -565 3 -565 10 0 4 13 16 29 27 402 283 848 513 1207 623
153 47 391 106 490 122 41 7 71 16 71 23 0 38 14 260 19 305 l6 53 -35 -3
c-20 -1 -89 -12 -154 -24z m-1535 -1528 c3 -3 -46 -46 -183 -159 -27 -23 -79
-69 -115 -103 -36 -33 -78 -73 -95 -87 l-30 -27 -264 0 -264 0 19 22 c10 12
95 97 187 188 154 151 171 165 210 170 46 6 529 2 535 -4z m1587 -4 c-6 -5
-55 -23 -110 -41 -190 -63 -348 -137 -566 -268 l-107 -63 -308 0 -309 1 40 35
c85 76 371 281 449 322 37 20 55 21 479 22 243 0 437 -3 432 -8z m659 -1 c6
-9 -24 -30 -619 -430 -927 -623 -1299 -870 -1304 -865 -5 5 197 207 299 299
144 130 417 330 545 400 165 90 348 172 463 206 29 8 44 19 48 33 7 30 12 125
13 254 l1 112 274 0 c151 0 277 -4 280 -9z m-3090 -833 c-31 -40 -97 -126
-146 -190 l-90 -118 -225 0 -225 0 28 48 c41 70 184 284 207 310 20 22 24 22
264 22 l244 0 -57 -72z m1107 48 c-7 -8 -71 -74 -143 -148 -366 -372 -571
-633 -739 -942 l-54 -99 -235 -158 c-129 -87 -242 -159 -252 -159 -15 0 -15 5
-2 58 43 167 102 318 207 522 73 144 91 170 116 170 9 0 39 11 66 24 98 45
611 354 602 362 -2 2 -91 6 -198 10 -107 3 -196 8 -198 10 -8 7 43 72 145 183
28 31 75 84 105 118 l54 61 269 1 c230 1 267 -1 257 -13z m-1591 -768 c0 -5
-25 -66 -56 -135 -31 -69 -64 -148 -74 -176 l-18 -52 -201 -2 c-170 -2 -201 0
-201 13 0 12 74 213 121 332 l14 33 207 -1 c135 -1 208 -5 208 -12z m1764
-171 c-11 -13 -55 -69 -100 -124 -150 -185 -289 -414 -325 -531 -8 -29 -26
-55 -53 -79 -33 -28 -233 -167 -370 -257 l-29 -20 6 120 c6 119 31 238 74 347
19 47 24 52 413 312 217 145 396 262 398 260 3 -2 -4 -15 -14 -28z m-1969
-360 c-30 -124 -52 -255 -66 -391 -6 -61 -13 -116 -15 -123 -1 -7 -85 -67
-186 -133 -174 -116 -183 -121 -189 -98 -12 50 0 405 17 503 12 70 20 77 237
208 116 70 214 127 218 127 3 0 -4 -42 -16 -93z m695 -544 c0 -38 3 -90 5
-118 2 -27 6 -75 9 -105 2 -30 7 -68 11 -85 3 -16 2 -35 -2 -41 -8 -11 -208
-152 -282 -198 -33 -21 -46 -25 -52 -15 -12 20 -50 227 -56 310 l-6 77 179
120 c99 67 182 121 187 121 4 1 7 -29 7 -66z m855 -320 c24 -44 114 -162 164
-216 20 -21 35 -40 34 -43 -1 -3 -75 -55 -165 -115 l-163 -110 -54 58 c-56 59
-156 205 -162 235 -3 13 38 45 156 123 88 58 162 105 165 105 3 0 14 -17 25
-37z m-1581 -198 c9 -47 30 -129 46 -183 28 -92 29 -98 12 -114 -30 -29 -274
-188 -289 -188 -17 0 -32 35 -83 196 -23 70 -38 135 -35 145 5 16 308 229 326
229 3 0 14 -38 23 -85z m946 -290 c29 -44 77 -110 106 -147 30 -37 54 -70 54
-73 0 -6 -193 -133 -272 -179 l-47 -27 -46 58 c-25 32 -73 98 -106 146 l-61
89 23 16 c60 43 294 200 296 199 1 -1 25 -38 53 -82z m-672 -405 c15 -22 60
-84 99 -138 40 -53 72 -101 72 -107 0 -5 -10 -17 -22 -26 -88 -62 -190 -130
-231 -154 l-49 -29 -30 37 c-42 54 -70 92 -123 175 -46 71 -46 73 -28 93 21
23 263 189 276 189 5 0 21 -18 36 -40z m2075 3 c-7 -2 -21 -2 -30 0 -10 3 -4
5 12 5 17 0 24 -2 18 -5z m-836 -139 c52 -31 130 -74 174 -96 43 -21 79 -42
79 -45 0 -9 -24 -26 -192 -138 -86 -58 -162 -105 -169 -105 -27 0 -309 201
-309 220 0 8 308 220 319 220 2 0 47 -25 98 -56z m-621 -518 c140 -105 145
-110 127 -126 -20 -20 -286 -198 -307 -206 -20 -7 -290 219 -284 238 4 11 301
209 310 205 5 -1 74 -51 154 -111z"/>
<path d="M5080 4141 c-25 -15 -97 -58 -160 -96 -63 -38 -173 -105 -245 -149
l-130 -81 75 -5 c86 -6 3865 -8 3982 -2 l77 4 5 41 c3 23 8 92 11 152 4 61 9
120 11 132 5 20 1 21 -58 25 -34 2 -841 5 -1793 6 l-1730 1 -45 -28z"/>
<path d="M4047 3384 c-1 -2 -48 -4 -104 -5 l-101 -1 -208 -124 c-115 -68 -244
-145 -287 -171 l-77 -48 112 -5 c89 -4 5055 -5 5238 -1 36 1 46 5 46 19 1 9 5
90 9 180 l8 163 -2316 -2 c-1274 -1 -2318 -3 -2320 -5z"/>
<path d="M2528 2584 c-46 -30 -310 -184 -314 -184 -3 0 -51 -30 -168 -104
l-49 -31 134 -5 c74 -3 1569 -5 3323 -4 l3189 1 2 138 c2 76 6 153 10 172 6
32 5 33 -27 34 -18 0 -1390 2 -3048 4 l-3015 3 -37 -24z"/>
</g>
</svg>
