<?xml version="1.0" encoding="UTF-8"?> <svg xmlns="http://www.w3.org/2000/svg" width="320" height="320" viewBox="0 0 320 320" fill="none"> <circle cx="160" cy="160" r="149.5" stroke="#202020"></circle> <circle cx="160" cy="160" r="157.5" stroke="#202020" stroke-width="5"></circle> <path d="M234.241 136.414L238.312 135.073C240.55 134.335 242.748 133.728 243.196 133.725L244.01 133.72V150.394C244.01 161.459 244.087 167.288 244.237 167.721C244.499 168.472 245.141 168.879 246.199 168.964C246.607 168.997 247.063 169.038 247.212 169.056C247.379 169.074 247.483 169.421 247.483 169.954V170.822H234.241V169.142L235.355 168.995C236.17 168.886 236.636 168.679 237.096 168.219L237.724 167.591L237.665 154.181C237.607 141.083 237.596 140.751 237.155 139.912C236.829 139.29 236.364 138.87 235.476 138.393C234.4 137.815 234.248 137.652 234.245 137.074L234.241 136.414Z" fill="#202020"></path> <path d="M78.8136 136.615L82.9924 135.295C85.2906 134.569 87.5362 133.967 87.9825 133.956L88.7942 133.937L88.9077 150.64L90.1915 149.788C90.8977 149.319 92.2807 148.674 93.2649 148.354C94.8557 147.837 95.3037 147.783 97.2995 147.865C100.055 147.979 101.434 148.507 102.684 149.927C104.209 151.658 104.264 151.997 104.376 160.386C104.475 167.824 104.477 167.853 104.975 168.35C105.301 168.676 105.858 168.9 106.58 168.996L107.685 169.142V170.822H94.8524L94.9859 168.981L96.0502 168.83C96.6357 168.747 97.2444 168.549 97.4031 168.39C97.9154 167.878 98.0432 166.064 98.0267 159.539C98.0111 153.323 97.9964 153.111 97.5153 152.157C96.469 150.083 94.6319 149.63 92.1743 150.839C91.4302 151.205 90.3628 151.909 89.8021 152.402L88.7827 153.299L88.8452 160.536C88.906 167.58 88.9201 167.785 89.3681 168.233C89.6671 168.532 90.2386 168.743 90.9962 168.835L92.1639 168.978L92.2974 170.822H79.2478V169.964C79.2478 169.141 79.2814 169.1 80.0618 168.97C81.4965 168.73 81.9551 168.522 82.2293 167.984C82.4334 167.585 82.4972 164.347 82.4959 154.441C82.4946 142.276 82.4683 141.365 82.0958 140.545C81.6265 139.513 80.6473 138.63 79.5788 138.278C78.9119 138.058 78.8136 137.935 78.8136 137.32V136.615Z" fill="#202020"></path> <path fill-rule="evenodd" clip-rule="evenodd" d="M35.2895 136.269L38.22 135.22C40.7768 134.304 41.3414 134.176 42.6473 134.216L44.1439 134.262L50.0475 149.342C56.0827 164.757 56.8987 166.671 57.7896 167.5C58.374 168.044 60.07 168.857 60.6333 168.865C60.9381 168.868 61.0132 169.062 61.0132 169.846V170.822H45.3836V169.947C45.3836 169.432 45.4949 169.042 45.6549 168.999C45.8043 168.959 46.5024 168.818 47.2064 168.685C49.8109 168.196 49.8665 167.554 47.7667 162.219C46.9283 160.089 46.149 158.126 46.0346 157.858L45.8271 157.37H34.1578L33.1222 160.028C32.4379 161.784 32.0491 163.146 31.976 164.041C31.7771 166.479 32.8732 168.249 34.8996 168.76C35.9155 169.017 35.9422 169.045 36.0073 169.923L36.0742 170.822H23.6758V169.947C23.6758 169.302 23.7752 169.043 24.0557 168.961C26.2023 168.329 27.9286 166.719 29.243 164.123C29.5829 163.452 31.8761 157.73 34.3386 151.408C38.487 140.758 38.7931 139.878 38.5031 139.435C38.0496 138.743 37.2386 138.271 36.199 138.094C35.3155 137.943 35.2895 137.915 35.2895 137.104V136.269ZM44.8656 155.139C44.9039 155.101 43.8393 152.317 42.5001 148.952C41.1608 145.587 40.0163 142.834 39.9566 142.834C39.8969 142.834 38.7688 145.592 37.4494 148.963L35.0507 155.092L39.9236 155.15C42.6037 155.182 44.8277 155.177 44.8656 155.139Z" fill="#202020"></path> <path fill-rule="evenodd" clip-rule="evenodd" d="M199.075 136.261V134.549L210.526 134.653C218.128 134.722 222.378 134.843 223.17 135.014C226.348 135.696 229.573 138.108 230.868 140.771C231.387 141.84 231.517 142.427 231.593 144.049C231.739 147.166 231.02 149.09 229 150.99C226.363 153.469 223.364 154.285 216.157 154.481L211.424 154.61L211.49 160.601C211.551 166.016 211.596 166.656 211.966 167.267C212.627 168.357 213.426 168.689 215.759 168.841L217.852 168.978L217.986 170.822H199.075V169.967C199.075 169.117 199.08 169.112 200.052 168.991C200.589 168.924 201.487 168.812 202.047 168.741C203.414 168.569 204.406 167.603 204.603 166.253C204.68 165.723 204.713 159.267 204.677 151.907C204.612 138.781 204.602 138.513 204.162 137.912C203.52 137.035 202.443 136.574 200.645 136.407L199.075 136.261ZM224.379 145.618C224.758 141.883 223.035 138.537 219.994 137.097C219.008 136.631 218.368 136.501 216.684 136.425C213.751 136.295 212.738 136.664 211.916 138.167C211.611 138.724 211.549 139.822 211.486 145.69L211.412 152.561L212.57 152.699C214.106 152.882 218.255 152.495 219.583 152.044C222.516 151.05 224.035 149.013 224.379 145.618Z" fill="#202020"></path> <path d="M63.8895 147.471C66.3266 145.625 67.8442 144.208 68.8278 142.858C69.7141 141.641 69.8619 141.531 70.6081 141.531H71.4217L71.5415 148.148L77.7282 148.269V150.21H71.4093L71.4753 158.509C71.5452 167.283 71.6066 167.821 72.5702 168.126C73.3517 168.374 74.4184 167.995 75.422 167.112C76.5447 166.124 77.0186 166.097 77.5038 166.992L77.8368 167.607L76.4257 168.897C74.5413 170.62 73.1272 171.296 71.1449 171.422C69.0907 171.553 67.8522 171.2 66.8506 170.199C65.4637 168.812 65.3708 168.158 65.2095 158.628L65.0671 150.21H62.5328V149.354C62.5328 148.56 62.6287 148.427 63.8895 147.471Z" fill="#202020"></path> <path fill-rule="evenodd" clip-rule="evenodd" d="M109.642 160.342C109.631 154.752 112.765 149.912 117.422 148.325C120.978 147.114 125.387 148.018 127.842 150.462C129.26 151.874 129.935 153.397 130.589 156.665L130.73 157.37H115.283L115.286 157.858C115.292 158.709 115.915 161.039 116.383 161.955C116.979 163.123 118.41 164.653 119.508 165.296C119.995 165.582 121.074 165.973 121.906 166.166C124.198 166.697 126.055 166.293 128.175 164.8C129.086 164.159 129.309 164.087 129.754 164.29C130.497 164.628 130.606 165.126 130.132 166.009C129.053 168.02 126.639 170.009 124.274 170.835C122.646 171.404 119.504 171.616 117.84 171.27C112.924 170.246 109.652 165.885 109.642 160.342ZM122.306 150.815C122.076 150.61 121.528 150.293 121.089 150.109C120.129 149.709 119.98 149.708 118.864 150.099C117.749 150.49 116.295 152.076 115.847 153.392C115.59 154.145 115.397 154.585 115.539 154.842C115.758 155.242 116.783 155.2 119.624 155.2H123.749L123.747 154.278C123.744 153.267 122.969 151.402 122.306 150.815Z" fill="#202020"></path> <path d="M132.432 150.898C132.432 150.301 132.498 150.269 136.285 149.077C138.404 148.41 140.553 147.854 141.061 147.843L141.983 147.823V149.233C141.983 150.009 142.039 150.644 142.107 150.644C142.175 150.644 142.665 150.345 143.197 149.979C143.728 149.614 144.814 149.01 145.611 148.638C146.878 148.045 147.348 147.949 149.386 147.865C153.468 147.696 155.701 148.769 156.837 151.443C157.247 152.41 157.289 153.062 157.393 160.155L157.504 167.823L158.113 168.346C158.45 168.635 159 168.869 159.344 168.869C160.423 168.869 160.652 169.064 160.652 169.977V170.822H147.844V169.967C147.844 169.118 147.851 169.112 148.841 168.964C149.39 168.881 150.098 168.591 150.415 168.318L150.992 167.822L151.055 160.753C151.095 156.23 151.034 153.373 150.886 152.824C150.004 149.548 146.372 149.441 142.79 152.584L141.983 153.292V167.543L142.496 168.139C142.881 168.586 143.272 168.765 144.07 168.856L145.131 168.978L145.264 170.822H132.432V169.98C132.432 169.074 132.711 168.879 134.015 168.872C134.367 168.871 134.846 168.645 135.155 168.337L135.688 167.804V161.17C135.688 154.067 135.631 153.634 134.573 152.661C134.288 152.398 133.689 152.031 133.243 151.844C132.58 151.567 132.432 151.395 132.432 150.898Z" fill="#202020"></path> <path fill-rule="evenodd" clip-rule="evenodd" d="M163.789 151.619C164.68 150.099 166.485 148.971 169.193 148.243C170.401 147.918 171.325 147.838 173.351 147.883C175.677 147.934 176.096 148.005 177.258 148.545C178.782 149.252 179.614 149.983 180.263 151.186C180.712 152.017 180.736 152.385 180.84 159.865C180.9 164.161 181.028 167.798 181.124 167.947C181.364 168.318 182.031 168.288 182.36 167.893C182.708 167.474 182.991 167.482 183.482 167.927C184.115 168.499 183.97 169.197 183.065 169.944C181.552 171.194 180.584 171.527 178.717 171.441C176.784 171.353 175.919 170.892 175.321 169.633C175.122 169.213 174.929 168.869 174.893 168.869C174.856 168.869 174.171 169.299 173.371 169.825C171.49 171.06 169.656 171.565 167.555 171.428C165.861 171.317 164.59 170.812 163.756 169.918C162.146 168.193 162.24 165.065 163.962 163.11C165.09 161.829 166.514 160.885 170.638 158.684C172.488 157.696 174.125 156.789 174.274 156.668C174.461 156.516 174.545 155.705 174.544 154.034C174.543 151.254 174.215 150.412 172.919 149.871C171.26 149.178 169.169 149.828 169.291 150.998C169.572 153.688 169.568 153.793 169.153 154.458C168.366 155.717 166.301 156.221 164.689 155.548C163.192 154.923 162.815 153.279 163.789 151.619ZM174.545 166.444V162.775C174.545 160.757 174.471 159.106 174.38 159.106C174.006 159.106 171.327 161.066 170.655 161.831C169.698 162.921 169.335 163.845 169.335 165.195C169.335 167.845 171.743 168.801 173.884 167L174.545 166.444Z" fill="#202020"></path> <path d="M279.285 151.541C280.108 150.042 281.462 148.944 283.271 148.313C284.547 147.867 285.023 147.818 287.426 147.887C289.625 147.95 290.514 148.079 292.119 148.57L294.098 149.175L294.235 150.483C294.31 151.203 294.372 152.656 294.372 153.713V155.634H293.511C292.867 155.634 292.591 155.523 292.414 155.191C291.855 154.147 289.518 151.712 288.286 150.89C286.002 149.365 284.266 149.212 283.051 150.426C282.224 151.253 282.184 152.585 282.964 153.364C283.257 153.657 285.772 155.005 288.554 156.361C292.42 158.245 293.827 159.042 294.525 159.741C296.985 162.207 296.87 166.338 294.269 168.938C291.408 171.797 286.336 172.237 280.479 170.133L279.068 169.626L278.949 162.577H279.88C280.78 162.577 280.836 162.618 281.54 163.795C283.391 166.888 286.545 169.303 288.733 169.303C290.949 169.303 292.62 166.828 291.334 165.449C290.711 164.781 288.191 163.328 286.2 162.488C281.908 160.679 280.253 159.472 279.243 157.416C278.727 156.366 278.635 155.911 278.64 154.441C278.646 152.935 278.731 152.551 279.285 151.541Z" fill="#202020"></path> <path d="M248.986 150.29C248.146 150.156 248.134 150.141 248.134 149.206V148.257H257.881L257.946 157.207C258.01 165.908 258.025 166.182 258.482 167.035C259.153 168.287 260.113 168.748 261.741 168.601C263.14 168.474 264.367 167.943 265.989 166.762L267.02 166.012V159.514C267.02 154.14 266.962 152.877 266.684 152.213C266.198 151.049 265.532 150.437 264.591 150.286C263.779 150.157 263.764 150.137 263.764 149.206V148.257H273.316V157.352C273.316 162.354 273.376 166.605 273.45 166.798C273.659 167.342 274.713 167.784 275.801 167.784H276.789V168.761C276.789 169.298 276.762 169.737 276.729 169.737C276.696 169.737 274.669 170.127 272.224 170.603C269.78 171.079 267.609 171.47 267.4 171.471C267.074 171.473 267.02 171.256 267.02 169.929V168.385L266.423 168.778C263.618 170.62 262.039 171.239 259.7 171.416C255.746 171.715 253.017 170.102 252.011 166.871C251.658 165.736 251.607 164.806 251.606 159.357C251.606 155.785 251.511 152.798 251.383 152.339C251.103 151.332 250.091 150.467 248.986 150.29Z" fill="#202020"></path> <path d="M37.7383 175.683C39.1376 175.142 40.9172 174.512 41.6933 174.282C43.7277 173.681 46.0188 173.806 47.6583 174.607C49.057 175.291 51.8102 177.461 52.0103 178.036C52.1358 178.397 57.5512 178.416 161.638 178.416H271.134L271.443 177.818C271.825 177.08 274.173 175.07 275.358 174.465C276.45 173.909 278.605 173.72 279.979 174.061C280.552 174.204 282.252 174.848 283.757 175.492C287.179 176.958 289.425 177.607 292.744 178.089C296.022 178.565 296.326 178.738 296.326 180.13C296.326 180.805 296.208 181.281 295.998 181.455C295.818 181.605 293.743 182.048 291.385 182.44C287.802 183.037 286.744 183.303 284.929 184.064C282.209 185.203 279.379 186.002 278.039 186.007C276.523 186.012 274.462 185.099 272.848 183.708C272.091 183.054 271.382 182.328 271.274 182.095C271.08 181.675 270.032 181.671 161.596 181.671C71.7434 181.671 52.113 181.721 52.113 181.954C52.113 182.366 50.9047 183.45 49.3012 184.476C45.8803 186.665 43.759 186.563 36.1905 183.847C34.3853 183.199 30.0555 182.377 26.4042 181.989C24.6053 181.797 23.8928 181.258 23.8928 180.087C23.8928 178.843 24.363 178.622 28.1804 178.077C32.3661 177.479 34.4387 176.96 37.7383 175.683Z" fill="#202020"></path> </svg> 